<svg id="Camada_1" data-name="Camada 1" xmlns="http://www.w3.org/2000/svg" viewBox="0 0 725.54 198.59"><defs><style>.cls-1{fill:#f59a1f;}.cls-2{fill:#f59b1d;}.cls-3{font-size:40.05px;fill:#1d1d1b;font-family:CinioText-Medium, Cinio Text;font-weight:500;}</style></defs><title>Oficina 5</title><path class="cls-1" d="M77.51,1.73c42.31-.14,76.32,33.47,76.25,75.36-.06,41.48-33.68,74.54-75.89,74.64-42.63.1-76.07-32.94-76.17-75.25C1.61,35.31,35.53,1.86,77.51,1.73Zm.13,128c29.22.25,53.58-23.33,54-52.22S107.27,23.73,78,23.59C49.5,23.44,24.18,48,23.77,76.14,23.34,104.94,48,129.48,77.64,129.73Z"/><path d="M603.56,51.2c7.9-11.36,18.5-3.3,27.75-6.59V150.1h-25.8c0-17.67.29-35-.07-52.43-.5-23.84-25.77-37.51-46.26-25.26a29.68,29.68,0,0,0,13.16,55.25c4.49.27,9,0,14.87,0,1.07,2.41,2.66,5.82,4.11,9.29s2.79,7.15,4.13,10.61c-14.67,11.28-46.5,6.52-62-10.82-18.12-20.31-20-51.75-3.48-73.35C547.16,40.91,575.07,36.36,603.56,51.2Z"/><path d="M508.24,150.18H483.16c0-18.6,0-36.62,0-54.64-.06-16.89-9.36-27.29-24.43-27.48S434,78.22,433.85,95.11c-.12,18,0,36.1,0,54.88H408.55V45c9.28,2.56,19.62-4.43,27.51,6.06,13.52-9.21,28.61-12,44.48-5.29s26.1,19.27,27.31,36C509.45,104.24,508.24,126.85,508.24,150.18Z"/><path d="M360,58.36,343.43,75.61c-21.49-10.8-36.22-9.48-46.86,4.19a29.69,29.69,0,0,0,1.63,38.31c11,12.16,26.87,12.93,44.79,2.14L359,137.55c-6.86,13.83-43.54,25-70.57,6a55.49,55.49,0,0,1-11.05-81.11C298.4,37.33,337.1,35.39,360,58.36Z"/><path class="cls-2" d="M713.36,44.3c1.3,18.19.3,19.14-16.1,17.86-8.37-.65-16.8-1.52-25.14-1.1-2.91.14-7.37,3.36-8.11,6a58.1,58.1,0,0,0-2.08,20.08c.21,2.54,5,6,8.26,6.73,8.14,1.82,16.86,1.3,24.83,3.56,26,7.37,36.81,36.76,21.52,59-15.4,22.44-39,29.9-64.61,32-8.91.72-6.28-6.89-6.84-11.32,12.1-4.18,24.72-6.74,35.32-12.81,7.09-4.07,13.92-12.33,16.27-20.11,4.54-15.06-4.2-27.35-19.76-31.24A143.62,143.62,0,0,0,653,109.25c-6-.45-9-2-8.3-8.65,1.68-16.06,2.77-32.18,4.66-48.21.34-2.86,3.37-7.68,5.26-7.74C674.25,44.08,693.87,44.3,713.36,44.3Z"/><path d="M192.06,150.41H166.94a40.59,40.59,0,0,1-.82-5.72c-.05-30.43-.27-60.87,0-91.3A50,50,0,0,1,217.08,3.7V27.75c-12.72,3.1-23.18,9.06-25.05,25.16,4.43.22,9.47-1,12.2,1,3,2.21,4.3,7.19,5.72,11.18s2,8.1,3.2,13.18l-21.09,1.07Z"/><path d="M227.7,45.94h24.92V150.16H227.7Z"/><path d="M393.63,46.18V150H369V46.18Z"/><path d="M227.75,27.7V3.39h24.53V27.7Z"/><path d="M393.63,3.77v24H369v-24Z"/><text class="cls-3" transform="translate(286.05 188.12)">Soluções inteligentes</text></svg>