<svg id="Camada_1" data-name="Camada 1" xmlns="http://www.w3.org/2000/svg" viewBox="0 0 160 160"><defs><style>.cls-1{fill:#eca43d;}</style></defs><title>Sino</title><path class="cls-1" d="M131.5,122.91v-54A39.67,39.67,0,0,0,96.68,29.48l-.22,0v-.57H76.73a3.29,3.29,0,0,0-.54.05L76,29h-4.1v.41a39.69,39.69,0,0,0-35,39.42v54.05L20.38,139.62l62.29.31h2.91l62.29-.32Zm-46.92,15h-.46l-59-.3,13.7-14V68.79A37.69,37.69,0,0,1,72.87,31.27H73l.9-.09V31H76l.5-.05a1.07,1.07,0,0,1,.25,0H94.46v.37l.9.09.66.07A37.7,37.7,0,0,1,129.5,68.87v54.86l13.63,13.91Z"/><path class="cls-1" d="M84.13,156.31A17.63,17.63,0,0,1,66.58,139l0-1h35.13v1A17.64,17.64,0,0,1,84.13,156.31ZM68.62,139.94a15.55,15.55,0,0,0,31,0Z"/><path class="cls-1" d="M97.08,26.36a12.35,12.35,0,0,1-.4,3.12l-.22,0v-.57H94.78a10.94,10.94,0,0,0,.3-2.52A10.6,10.6,0,1,0,74.2,29h-2a11.77,11.77,0,0,1-.28-2.6,12.6,12.6,0,1,1,25.2,0Z"/></svg>