<svg id="Camada_1" data-name="Camada 1" xmlns="http://www.w3.org/2000/svg" viewBox="0 0 400 400"><defs><style>.cls-1{fill:#eca43d;}</style></defs><title>Contatos</title><path class="cls-1" d="M363.19,381H259.28a17.36,17.36,0,0,1,0-34.71H363.19a17.36,17.36,0,0,1,0,34.71ZM259.28,353.28a10.36,10.36,0,0,0,0,20.71H363.19a10.36,10.36,0,0,0,0-20.71ZM36.87,381a17.4,17.4,0,0,1-12.77-5.62A17.65,17.65,0,0,1,19.52,362a181.26,181.26,0,0,1,114.85-153.2A106,106,0,0,1,93.69,124c.71-56.09,46.9-103,103-104.61a106,106,0,1,1,3.07,212c-75.44,0-139.4,58.83-145.63,134A17.28,17.28,0,0,1,36.87,381ZM199.73,26.32c-1,0-1.92,0-2.89,0-52.35,1.49-95.48,45.32-96.15,97.71a99,99,0,0,0,43,82.88l5.7,3.93-6.55,2.26A174.17,174.17,0,0,0,26.5,362.57a10.6,10.6,0,0,0,2.75,8.06,10.3,10.3,0,0,0,17.86-5.89,153.32,153.32,0,0,1,152.6-140.37,99,99,0,0,0,0-198ZM363.19,325.56H259.28a17.36,17.36,0,0,1,0-34.71H363.19a17.36,17.36,0,0,1,0,34.71ZM259.28,297.85a10.36,10.36,0,0,0,0,20.71H363.19a10.36,10.36,0,0,0,0-20.71Zm103.91-27.69H259.28a17.36,17.36,0,0,1,0-34.71H363.19a17.36,17.36,0,0,1,0,34.71ZM259.28,242.45a10.36,10.36,0,0,0,0,20.71H363.19a10.36,10.36,0,0,0,0-20.71Zm-59.57-38.79A78.32,78.32,0,1,1,278,125.34,78.41,78.41,0,0,1,199.71,203.66Zm0-149.63A71.32,71.32,0,1,0,271,125.34,71.39,71.39,0,0,0,199.71,54Z"/></svg>