<svg id="Camada_1" data-name="Camada 1" xmlns="http://www.w3.org/2000/svg" viewBox="0 0 400 400"><defs><style>.cls-1{fill:#eca43d;}</style></defs><title>Indicadores</title><path class="cls-1" d="M375.89,362.29H321.74a3.32,3.32,0,0,1-3.32-3.32V84.11a3.31,3.31,0,0,1,3.32-3.32h54.15a3.32,3.32,0,0,1,3.32,3.32V359A3.32,3.32,0,0,1,375.89,362.29Zm-50.83-6.64h47.51V87.43H325.06Z"/><path class="cls-1" d="M303.68,362.29H249.52A3.32,3.32,0,0,1,246.2,359V118.18a3.32,3.32,0,0,1,3.32-3.32h54.16a3.32,3.32,0,0,1,3.32,3.32V359A3.32,3.32,0,0,1,303.68,362.29Zm-50.84-6.64h47.52V121.5H252.84Z"/><path class="cls-1" d="M231.46,362.29H177.3A3.32,3.32,0,0,1,174,359V151.3A3.32,3.32,0,0,1,177.3,148h54.16a3.32,3.32,0,0,1,3.32,3.32V359A3.32,3.32,0,0,1,231.46,362.29Zm-50.84-6.64h47.52v-201H180.62Z"/><path class="cls-1" d="M159.24,362.29H105.08a3.32,3.32,0,0,1-3.32-3.32V197.46a3.32,3.32,0,0,1,3.32-3.32h54.16a3.32,3.32,0,0,1,3.33,3.32V359A3.33,3.33,0,0,1,159.24,362.29Zm-50.84-6.64h47.53V200.78H108.4Z"/><path class="cls-1" d="M87,362.29H32.86A3.32,3.32,0,0,1,29.54,359V245.58a3.32,3.32,0,0,1,3.32-3.32H87a3.32,3.32,0,0,1,3.32,3.32V359A3.32,3.32,0,0,1,87,362.29Zm-50.85-6.64H83.71V248.9H36.18Z"/><path class="cls-1" d="M376.33,362.29H32.41a3.36,3.36,0,0,1,0-6.64H376.33a3.35,3.35,0,0,1,0,6.64Z"/><path class="cls-1" d="M282,46.56v1.16c-2.14,2.5-4.37,5-6.66,7.43C193.58,143,24.67,204.5,22.92,205.13a3.47,3.47,0,0,1-1.1.18,3.32,3.32,0,0,1-1.13-6.45C22.45,198.27,190.78,137,271.2,49.92q3-3.26,5.88-6.6l.09-.09h1.51A3.36,3.36,0,0,1,282,46.56Z"/><path class="cls-1" d="M282,46.56v1.16l-.06,38a3.31,3.31,0,1,1-6.62,0l0-30.56V49.89l-4.18,0L241.52,50h0a3.32,3.32,0,1,1,0-6.63l35.68-.18h1.51A3.36,3.36,0,0,1,282,46.56Z"/></svg>