<svg id="Camada_1" data-name="Camada 1" xmlns="http://www.w3.org/2000/svg" viewBox="0 0 400 400"><defs><style>.cls-1{fill:#eca43d;}</style></defs><title>Oportunidades</title><path class="cls-1" d="M149.28,377.92a18.8,18.8,0,0,1-8.4-1.95A16.8,16.8,0,0,1,132,365.55l-24.37-83.68,46.63-13.58L178.64,352c2.7,9.26-3.16,19.14-13,22l-10.74,3.13A19.79,19.79,0,0,1,149.28,377.92Zm-31.71-90.61,22.13,76a8.9,8.9,0,0,0,4.73,5.49,11.23,11.23,0,0,0,8.18.64l10.74-3.13c5.66-1.64,9.07-7.08,7.61-12.1l-22.13-76Z"/><path class="cls-1" d="M64.7,305.55a38.39,38.39,0,0,1-36.91-27.8L10.24,217.49a38.41,38.41,0,0,1,22.83-46.64L60.5,160a9.73,9.73,0,0,1,12.92,6.32L108.56,287a9.74,9.74,0,0,1-7.51,12.28l-29,5.56A38.93,38.93,0,0,1,64.7,305.55Zm-29.22-30A30.43,30.43,0,0,0,70.58,297l29-5.56a1.7,1.7,0,0,0,1.14-.8,1.74,1.74,0,0,0,.19-1.39L65.74,168.56a1.76,1.76,0,0,0-.91-1.08,1.72,1.72,0,0,0-1.38,0L36,178.29a30.43,30.43,0,0,0-18.09,37Z"/><path class="cls-1" d="M101.77,291.66l-37-127,48.09-14.4a101.58,101.58,0,0,0,40-22.87l54.23-50.5,61.86,212.42L197,275.67a100.37,100.37,0,0,0-45.93,2ZM74.7,170.09,107.23,281.8,148.9,270a108.54,108.54,0,0,1,49.61-2.19l59.09,11.24L203,91.63l-44.73,41.65A109.73,109.73,0,0,1,115.18,158Z"/><path class="cls-1" d="M271.17,295a12.42,12.42,0,0,1-11.88-8.94L200.63,84.66a12.39,12.39,0,0,1,8.44-15.36l11.07-3.22a27.08,27.08,0,0,1,33.57,18.43l50.44,173.22a27.08,27.08,0,0,1-18.42,33.57l-11.08,3.22A12.62,12.62,0,0,1,271.17,295ZM227.74,73a19,19,0,0,0-5.36.77L211.31,77a4.39,4.39,0,0,0-3,5.44L267,283.85a4.4,4.4,0,0,0,5.45,3l11.07-3.23a19.06,19.06,0,0,0,13-23.64L246,86.75A19.1,19.1,0,0,0,227.74,73Z"/><path class="cls-1" d="M287,134a4,4,0,1,1-5.57-5.73l49.15-47.81a4,4,0,1,1,5.58,5.74Z"/><rect class="cls-1" x="333.85" y="164.58" width="8" height="76.57" rx="4" transform="matrix(0.13, -0.99, 0.99, 0.13, 91.89, 510.76)"/><rect class="cls-1" x="288.17" y="146.26" width="101.14" height="8" rx="4" transform="translate(-28.5 100.67) rotate(-16.23)"/></svg>